HIERARCHY
ROOT Hips
{
	OFFSET 0.00000 0.00000 0.00000
	CHANNELS 6 Xposition Yposition Zposition Zrotation Yrotation Xrotation 
	JOINT LHipJoint
	{
		OFFSET 0 0 0
		CHANNELS 3 Zrotation Yrotation Xrotation
		JOINT LeftHip
		{
			OFFSET 1.55766 -1.60504 1.11378
			CHANNELS 3 Zrotation Yrotation Xrotation
			JOINT LeftKnee
			{
				OFFSET 2.29047 -6.29302 0.00000
				CHANNELS 3 Zrotation Yrotation Xrotation
				JOINT LeftAnkle
				{
					OFFSET 2.52265 -6.93093 0.00000
					CHANNELS 3 Zrotation Yrotation Xrotation
					JOINT LeftToe
					{
						OFFSET 0.17633 -0.48446 2.02656
						CHANNELS 3 Zrotation Yrotation Xrotation
						End Site
						{
							OFFSET 0.00000 -0.00000 1.04989
						}
					}
				}
			}
		}
	}
	JOINT RHipJoint
	{
		OFFSET 0 0 0
		CHANNELS 3 Zrotation Yrotation Xrotation
		JOINT RightHip
		{
			OFFSET -1.48599 -1.60504 1.11378
			CHANNELS 3 Zrotation Yrotation Xrotation
			JOINT RightKnee
			{
				OFFSET -2.27280 -6.24448 0.00000
				CHANNELS 3 Zrotation Yrotation Xrotation
				JOINT RightAnkle
				{
					OFFSET -2.50834 -6.89161 0.00000
					CHANNELS 3 Zrotation Yrotation Xrotation
					JOINT RightToe
					{
						OFFSET -0.26967 -0.74090 2.08741
						CHANNELS 3 Zrotation Yrotation Xrotation
						End Site
						{
							OFFSET -0.00000 -0.00000 1.10614
						}
					}
				}
			}
		}
	}
	JOINT lowerback
	{
		OFFSET 0 0 0
		CHANNELS 3 Zrotation Yrotation Xrotation
		JOINT Chest
		{
			OFFSET 0.06481 2.02437 -0.08472
			CHANNELS 3 Zrotation Yrotation Xrotation
			JOINT Chest2
			{
				OFFSET 0.00015 1.96711 0.18069
				CHANNELS 3 Zrotation Yrotation Xrotation
				JOINT lowerneck
				{
					OFFSET 0 0 0
					CHANNELS 3 Zrotation Yrotation Xrotation
					JOINT Neck
					{
						OFFSET -0.29961 1.68293 -0.13041
						CHANNELS 3 Zrotation Yrotation Xrotation
						JOINT Head
						{
							OFFSET 0.59697 1.61501 -0.14669
							CHANNELS 3 Zrotation Yrotation Xrotation
							End Site
							{
								OFFSET 0.22973 1.74906 -0.10148
							}
						}
					}
				}
				JOINT LeftCollar
				{
					OFFSET 0 0 0
					CHANNELS 3 Zrotation Yrotation Xrotation
					JOINT LeftShoulder
					{
						OFFSET 3.37968 1.02893 0.31147
CHANNELS 3 Zrotation Xrotation Yrotation
						JOINT LeftElbow
						{
OFFSET 0 -5.198070 -0.000000
CHANNELS 3 Zrotation Xrotation Yrotation
							JOINT LeftWrist
							{
OFFSET 0 -3.093700 -0.000000
CHANNELS 3 Zrotation Xrotation Yrotation
								JOINT lhand
								{
									OFFSET 0 0 0
CHANNELS 3 Zrotation Xrotation Yrotation
									JOINT LFingers
									{
OFFSET 0 -0.672630 -0.000000
CHANNELS 3 Zrotation Xrotation Yrotation
										End Site
										{
OFFSET 0 -0.542290 -0.000000
										}
									}
								}
								JOINT LThumb
								{
OFFSET 0 0.000000 0.000000
CHANNELS 3 Zrotation Xrotation Yrotation
									End Site
									{
OFFSET 0 -0.550570 0.550570
									}
								}
							}
						}
					}
				}
				JOINT RightCollar
				{
					OFFSET 0 0 0
					CHANNELS 3 Zrotation Yrotation Xrotation
					JOINT RightShoulder
					{
						OFFSET -3.38254 0.96355 -0.16120
CHANNELS 3 Zrotation Xrotation Yrotation
						JOINT RightElbow
						{
OFFSET 0 -5.452220 -0.000000
CHANNELS 3 Zrotation Xrotation Yrotation
							JOINT RightWrist
							{
OFFSET 0 -3.012840 -0.000000
CHANNELS 3 Zrotation Xrotation Yrotation
								JOINT rhand
								{
									OFFSET 0 0 0
CHANNELS 3 Zrotation Xrotation Yrotation
									JOINT RFingers
									{
OFFSET 0 -0.622300 -0.000000
CHANNELS 3 Zrotation Xrotation Yrotation
										End Site
										{
OFFSET 0 -0.501710 -0.000000
										}
									}
								}
								JOINT RThumb
								{
OFFSET 0 0.000000 0.000000
CHANNELS 3 Zrotation Xrotation Yrotation
									End Site
									{
OFFSET 0 -0.509370 0.509370
									}
								}
							}
						}
					}
				}
			}
		}
	}
}
MOTION
Frames: 8
Frame Time: 0.008333333333333333
-3.878200 15.518800 36.263100 -156.762000 -73.527100 179.585000 0.000000 0.000000 0.000000 -15.619200 -2.698800 -51.857100 5.469700 13.893900 42.814200 1.067800 -8.150100 -18.502400 0.807000 -5.733200 -16.012200 0.000000 0.000000 0.000000 20.358000 10.615700 -36.168100 -8.030500 -16.141600 52.672300 -1.538000 0.933700 -23.177600 -1.337200 7.321900 -20.672500 1.479200 2.152900 0.692700 -0.415800 2.791500 -6.197600 -1.433100 1.226100 -6.738400 -27.817800 -8.309200 8.352400 46.376100 -11.630700 -26.108900 26.650700 -8.899800 -2.716800 -0.000000 -0.000000 0.000000 9.379100 3.425500 -43.633900 19.099300 -29.541900 5.079700 -9.046800 -47.545800 5.798800 0.000000 0.000000 0.000000 -7.125000 0.000000 0.000000 -25.766400 23.967100 -14.554000 -0.000000 -0.000000 0.000000 1.538500 -3.010600 49.642800 -19.938800 -30.568500 -5.500200 -8.302600 21.010300 -8.898000 0.000000 0.000000 0.000000 7.125000 0.000000 -0.000000 13.331800 21.082800 7.855100
-3.855096 15.522781 36.265281 -157.079725 -73.425393 179.895533 0.000000 0.000000 0.000000 -16.119618 -1.741428 -52.305356 5.452204 13.875659 42.741534 0.983581 -9.411517 -17.917531 0.660294 -5.196736 -14.470672 0.000000 0.000000 0.000000 20.876843 9.002997 -34.027725 -7.848135 -16.006317 52.013551 -1.469489 -1.094566 -23.336019 -1.245264 7.075179 -19.938536 1.516173 2.250030 0.197190 -0.431365 2.904487 -6.308668 -1.457646 1.277345 -6.564538 -27.988879 -8.356829 8.355032 46.347460 -11.760505 -25.822163 26.553907 -8.933275 -2.557197 0.000000 0.000000 0.000000 9.385828 4.032161 -46.620776 19.979075 -30.616469 5.520929 0.297220 -46.925069 10.259914 0.000000 0.000000 0.000000 -7.125000 0.000000 0.000000 -18.763594 19.929841 -11.875404 0.000000 0.000000 0.000000 1.143376 -2.296560 51.260869 -20.975312 -31.799181 -6.037132 -8.745638 19.857090 -7.878285 0.000000 0.000000 0.000000 7.125000 0.000000 0.000000 13.093588 22.073509 7.404019
-3.831467 15.523271 36.269614 -157.524948 -73.485277 180.369756 0.000000 0.000000 0.000000 -16.616079 -1.140410 -52.698384 5.432748 13.855104 42.660159 0.897818 -10.372716 -17.341040 0.564887 -4.812902 -13.375844 0.000000 0.000000 0.000000 21.225349 7.181622 -32.048316 -7.588686 -15.808022 51.066759 -1.352569 -2.956636 -23.213517 -1.105671 6.680057 -18.771288 1.613586 2.345727 -0.354365 -0.516674 3.011284 -6.428348 -1.584180 1.320055 -6.361445 -28.043723 -8.420595 8.374256 46.314149 -11.886519 -25.581805 26.423614 -8.976137 -2.429146 0.000000 0.000000 0.000000 9.451965 4.482545 -49.251096 20.848221 -31.650142 5.970366 9.507440 -46.746906 12.948869 0.000000 0.000000 0.000000 -7.125000 0.000000 0.000000 -12.266618 17.030783 -8.324692 0.000000 0.000000 0.000000 0.905488 -1.726865 51.914901 -21.698858 -32.634655 -6.422880 -8.381561 19.104178 -8.492820 0.000000 0.000000 0.000000 7.125000 0.000000 0.000000 13.306020 21.478763 7.716413
-3.803880 15.518653 36.273842 -157.902344 -73.518708 180.763950 0.000000 0.000000 0.000000 -16.949417 -0.775585 -53.034531 5.431298 13.853598 42.654193 0.823641 -11.014156 -16.834783 0.492703 -4.500117 -12.488193 0.000000 0.000000 0.000000 21.527932 5.322196 -30.099409 -7.261173 -15.547698 49.854925 -1.217790 -4.672857 -23.013672 -0.914204 6.090649 -17.048195 1.730611 2.463248 -0.873475 -0.569916 3.149409 -6.544944 -1.689429 1.378210 -6.173363 -28.125848 -8.465749 8.418222 46.247494 -11.984435 -25.374326 26.301493 -8.997994 -2.333263 0.000000 0.000000 0.000000 9.322360 4.647048 -50.263617 21.558773 -32.474469 6.347465 14.602339 -46.972908 13.811503 0.000000 0.000000 0.000000 -7.125000 0.000000 0.000000 -8.764201 15.834616 -6.112285 0.000000 0.000000 0.000000 0.616452 -1.235120 52.493411 -22.297265 -33.311125 -6.748471 -7.811096 18.494842 -9.294111 0.000000 0.000000 0.000000 7.125000 0.000000 0.000000 13.649497 20.709141 8.172405
-3.770991 15.511534 36.278808 -158.232356 -73.540316 181.087624 0.000000 0.000000 0.000000 -17.115181 -0.693965 -53.266667 5.438843 13.861535 42.685747 0.769156 -11.269593 -16.418727 0.450495 -4.306048 -11.939285 0.000000 0.000000 0.000000 21.777599 3.467570 -28.198488 -6.866711 -15.218528 48.368170 -1.081315 -6.196649 -22.805025 -0.691297 5.314642 -14.808383 1.912760 2.597235 -1.344925 -0.619809 3.311916 -6.648803 -1.828385 1.445525 -5.994618 -28.169574 -8.494958 8.481687 46.140789 -12.044278 -25.198557 26.159423 -8.998812 -2.280226 0.000000 0.000000 0.000000 9.081297 4.541437 -49.912616 22.136646 -33.131041 6.660405 15.689007 -47.443426 14.006545 0.000000 0.000000 0.000000 -7.125000 0.000000 0.000000 -8.022375 15.549120 -5.634568 0.000000 0.000000 0.000000 0.333769 -0.845790 53.245407 -22.781132 -33.848560 -7.016007 -7.621720 18.111933 -9.349428 0.000000 0.000000 0.000000 7.125000 0.000000 0.000000 13.778795 20.660745 8.269735
-3.732201 15.501910 36.286188 -158.677723 -73.574451 181.484855 0.000000 0.000000 0.000000 -17.202530 -0.856435 -53.391530 5.450712 13.874073 42.735170 0.726949 -11.282366 -16.045006 0.401371 -4.067313 -11.266205 0.000000 0.000000 0.000000 21.913499 1.573077 -26.378093 -6.411949 -14.815543 46.612628 -0.945237 -7.330724 -22.421286 -0.510877 4.580006 -12.714651 2.179651 2.755301 -1.733531 -0.718263 3.507441 -6.745684 -2.067550 1.523680 -5.845750 -28.174946 -8.531866 8.621725 46.038504 -12.119314 -25.069967 26.026575 -9.017776 -2.254076 0.000000 0.000000 0.000000 8.892355 4.341924 -49.430374 22.652161 -33.706067 6.944325 15.733076 -47.814203 14.105795 0.000000 0.000000 0.000000 -7.125000 0.000000 0.000000 -7.993043 15.443878 -5.631734 0.000000 0.000000 0.000000 0.070871 -0.596401 54.060510 -23.087834 -34.184728 -7.187627 -7.590128 17.751315 -9.155873 0.000000 0.000000 0.000000 7.125000 0.000000 0.000000 13.815698 20.851165 8.231871
-3.686002 15.490655 36.295514 -159.329090 -73.597161 182.040758 0.000000 0.000000 0.000000 -17.230638 -1.239737 -53.409445 5.465262 13.889339 42.795857 0.698218 -11.050338 -15.720536 0.352958 -3.816679 -10.561557 0.000000 0.000000 0.000000 21.908876 -0.273386 -24.656780 -5.918705 -14.348231 44.652939 -0.806456 -7.854422 -21.569075 -0.402721 4.073591 -11.283880 2.501464 2.933100 -2.022660 -0.854998 3.730804 -6.835121 -2.380659 1.611923 -5.736943 -28.222038 -8.578176 8.802471 45.955439 -12.226189 -24.953593 25.923133 -9.055709 -2.217811 0.000000 0.000000 0.000000 8.740300 4.128113 -49.146946 23.137055 -34.238228 7.215356 15.834432 -48.131797 14.258782 0.000000 0.000000 0.000000 -7.125000 0.000000 0.000000 -7.925416 15.278846 -5.611582 0.000000 0.000000 0.000000 -0.159845 -0.512529 54.785188 -23.165017 -34.268765 -7.230978 -7.564039 17.548476 -9.072186 0.000000 0.000000 0.000000 7.125000 0.000000 0.000000 13.840569 20.933870 8.220875
-3.635469 15.479323 36.303244 -160.116541 -73.384463 182.702304 0.000000 0.000000 0.000000 -17.194413 -1.535324 -53.418102 5.489223 13.914432 42.895593 0.687617 -10.626487 -15.509459 0.331125 -3.698468 -10.229883 0.000000 0.000000 0.000000 21.808941 -1.812076 -22.983615 -5.401714 -13.821452 42.528639 -0.685076 -7.764043 -20.333692 -0.423043 4.173227 -11.564679 2.817225 3.141397 -2.292676 -0.962807 3.995339 -6.913801 -2.659740 1.722327 -5.624332 -28.430544 -8.582084 8.967516 45.913657 -12.322895 -24.751626 25.911428 -9.078694 -2.138050 0.000000 0.000000 0.000000 8.554159 3.980735 -48.872130 23.625043 -34.765073 7.491789 16.077364 -48.359068 14.337558 0.000000 0.000000 0.000000 -7.125000 0.000000 0.000000 -7.760885 15.177080 -5.509913 0.000000 0.000000 0.000000 -0.368000 -0.600016 55.541081 -23.002890 -34.091916 -7.139913 -7.508952 17.551065 -9.041477 0.000000 0.000000 0.000000 7.125000 0.000000 0.000000 13.881722 20.965464 8.236582
